<svg width="24" height="18" viewBox="0 0 24 18" fill="none" xmlns="http://www.w3.org/2000/svg">
<g clip-path="url(#clip0)">
<path d="M-5.55392e-08 16.7294C-2.4067e-08 16.0094 0.52 15.4588 1.2 15.4588L22.8 15.4588C23.48 15.4588 24 16.0094 24 16.7294C24 17.4494 23.48 18 22.8 18L1.2 18C0.559999 18 -8.70114e-08 17.4494 -5.55392e-08 16.7294Z" fill="white"/>
<path d="M-2.67584e-05 8.97885C-2.67269e-05 8.25885 0.519974 7.70827 1.19997 7.70827L15.52 7.70827C16.2 7.70827 16.72 8.25886 16.72 8.97886C16.72 9.69885 16.2 10.2494 15.52 10.2494L1.19997 10.2494C0.559973 10.2494 -2.67899e-05 9.69885 -2.67584e-05 8.97885Z" fill="white"/>
<path d="M5.04892e-05 1.27059C5.05207e-05 0.550588 0.52005 -4.00396e-07 1.20005 -3.70673e-07L8.48005 -5.24537e-08C9.16005 -2.27299e-08 9.68005 0.550588 9.68005 1.27059C9.68005 1.99059 9.16005 2.54118 8.48005 2.54118L1.20005 2.54118C0.560051 2.54118 5.04577e-05 1.99059 5.04892e-05 1.27059Z" fill="white"/>
</g>
<defs>
<clipPath id="clip0">
<rect width="18" height="24" fill="white" transform="translate(24) rotate(90)"/>
</clipPath>
</defs>
</svg>
