<svg width="22" height="22" viewBox="0 0 22 22" fill="none" xmlns="http://www.w3.org/2000/svg">
<g clip-path="url(#clip0)">
<path d="M10.0253 19.1307C4.98363 19.1307 0.916687 15.0569 0.916687 10.0405C0.916687 5.02409 4.98363 0.916687 10.0253 0.916687C15.067 0.916687 19.1339 4.99042 19.1339 10.0405C19.1339 11.6565 18.697 13.2389 17.9239 14.6192C17.655 15.0906 17.0164 15.2589 16.5459 14.9896C16.0753 14.7202 15.9072 14.0806 16.1761 13.6092C16.8147 12.5319 17.1172 11.3199 17.1172 10.0405C17.0836 6.10144 13.9242 2.93672 10.0253 2.93672C6.12641 2.93672 2.93335 6.10144 2.93335 10.0405C2.93335 13.9796 6.0928 17.1443 10.0253 17.1443C11.2689 17.1443 12.5125 16.8076 13.5881 16.2016C14.0586 15.9323 14.6972 16.1006 14.9661 16.5719C15.235 17.0433 15.067 17.683 14.5964 17.9523C13.1847 18.7266 11.605 19.1307 10.0253 19.1307Z" fill="white"/>
<path d="M10.0253 19.1307C4.98363 19.1307 0.916687 15.0569 0.916687 10.0405C0.916687 8.42448 1.35363 6.84212 2.12669 5.46176C2.39558 4.99042 3.03419 4.82208 3.50474 5.09142C3.9753 5.36076 4.14335 6.00044 3.87447 6.47178C3.26946 7.54913 2.93335 8.79482 2.93335 10.0405C2.93335 13.9459 6.0928 17.1443 10.0253 17.1443C13.9578 17.1443 17.1172 13.9796 17.1172 10.0405C17.1172 6.10144 13.9242 2.93672 10.0253 2.93672C8.78169 2.93672 7.53808 3.27339 6.46252 3.8794C5.99197 4.14874 5.35335 3.9804 5.08446 3.50906C4.81558 3.03772 4.98363 2.39804 5.45419 2.12871C6.83224 1.35436 8.41197 0.916687 10.0253 0.916687C15.0334 0.916687 19.1003 4.99042 19.1003 10.0405C19.1003 15.0906 15.0334 19.1307 10.0253 19.1307Z" fill="white"/>
<path d="M20.075 21.0834C19.8061 21.0834 19.5708 20.9824 19.3691 20.7804L15.1005 16.5046C14.6972 16.1006 14.6972 15.4609 15.1005 15.0906C15.5039 14.6866 16.1425 14.6866 16.5122 15.0906L20.7808 19.3663C21.1841 19.7703 21.1841 20.41 20.7808 20.7804C20.5791 20.9824 20.3103 21.0834 20.075 21.0834Z" fill="white"/>
</g>
<defs>
<clipPath id="clip0">
<rect width="20.1667" height="20.1667" fill="white" transform="translate(0.916687 0.916687)"/>
</clipPath>
</defs>
</svg>
